<?xml version="1.0" encoding="utf-8"?>
<!-- Generator: Adobe Illustrator 21.0.0, SVG Export Plug-In . SVG Version: 6.00 Build 0)  -->
<svg version="1.1" id="Layer_1" xmlns="http://www.w3.org/2000/svg" xmlns:xlink="http://www.w3.org/1999/xlink" x="0px" y="0px"
	 viewBox="0 0 130.9 170.1" width="74" style="max-width: 74px; min-width: 50px; enable-background:new 0 0 130.9 170.1;" xml:space="preserve">
<style type="text/css">
	.st0{fill:#FFFFFF;stroke:#FFFFFF;stroke-width:0.25;stroke-miterlimit:10;}
	.st1{fill:#000F9F;}
	.st2{stroke:#FFFFFF;stroke-miterlimit:10;}
</style>
<rect class="st0" width="130.9" height="170.1"/>
<g>
	<path d="M54.4,27c4.9,0,8.5,0.9,11,2.3L49.8,11.5h-38v42C15.9,44.1,29.5,27,54.4,27z"/>
	<path d="M51,99.9V89.8c-5.8,4.6-11.9,8.3-17.8,10.2L51,99.9L51,99.9z"/>
	<path d="M16.7,92.2C16.7,76,59.3,44.3,59.3,34c0-3.5-4.1-4.5-8.4-4.5c-9,0-34,10.8-34,26.8c0,5.8,3.7,9.1,10.8,10.7
		c-5.3,2.9-12.9,1.2-15.8-3.9V100h9.5C18.6,98.3,16.7,95.2,16.7,92.2z"/>
</g>
<path class="st1" d="M66,29.7c2.8,1.9,4,4.3,4,6.3c0,1.8-1.1,4.3-2.9,7.1l-1.2,1.8L51,62.6C34.1,81.1,23.8,92,27.1,96.2
	c1.6,2,9.9,2,23.9-9.8c5.5-4.7,10.4-9.4,14.6-13.9l3.1-3.4C80.2,56.6,90.2,43.3,95,37.3c4.1-0.7,9-0.2,13.5-0.6
	c-5.9,6.5-18.3,25.1-25.7,40.2l-2,4.4c0,0-6.5,12.9-2.8,16.3c4.4,3.9,10.5-0.9,10.5-0.9c4.7-3.6,9-10.9,9-18.9
	c2.3,1.7,3.5,4.2,3.5,6.6c0,6.7-5.2,12.7-12,15.6h31V11.5H81.9L66,29.7z"/>
<path d="M122.7,126c-1.1,0-2.1-0.9-2.1-2.1c0-1.1,0.9-2.1,2.1-2.1s2.1,0.9,2.1,2.1C124.7,125.1,123.8,126,122.7,126z M122.7,122.2
	c-1,0-1.8,0.8-1.8,1.8s0.8,1.8,1.8,1.8s1.8-0.8,1.8-1.8S123.7,122.2,122.7,122.2z"/>
<path d="M122.7,123.2c0.1,0,0.2,0,0.2,0c0.1,0,0.1,0.1,0.1,0.3c0,0.1,0,0.2-0.1,0.3c-0.1,0-0.1,0-0.2,0h-0.5v-0.7L122.7,123.2
	L122.7,123.2z M122.8,122.8h-1.1v2.4h0.5v-0.9h0.5c0.1,0,0.2,0,0.3,0.1c0,0.1,0.1,0.2,0.1,0.3v0.2c0,0.1,0,0.1,0,0.2v0.1h0.6v-0.1
	l-0.1-0.1c0,0,0-0.1,0-0.2v-0.2c0-0.2,0-0.3-0.1-0.4c0-0.1-0.1-0.1-0.2-0.2c0.1,0,0.2-0.1,0.3-0.2c0.1-0.1,0.1-0.2,0.1-0.3
	c0-0.1,0-0.2,0-0.3s-0.1-0.1-0.1-0.2c-0.1-0.1-0.1-0.1-0.2-0.2C123.1,122.8,123,122.8,122.8,122.8z"/>
<path d="M19.6,117.9c0,1.8,0.5,3.1,2.2,3.1c1.9,0,2.3-1.3,2.3-3.1v-11.2h7.1v11.1c0,6.1-3.8,8.1-9.4,8.1c-5.3,0-9.4-2.2-9.4-7.7
	v-11.4h7.2C19.6,106.8,19.6,117.9,19.6,117.9z"/>
<path d="M33.9,106.7h10.7L47,117h0.1l2.4-10.3h10.7v18.8h-6.5l-0.1-14.8h-0.1l-3.7,14.8h-6l-3.6-14.8h-0.1L40,125.5h-6.2v-18.8H33.9
	z"/>
<path d="M72.6,110.7L72.6,110.7l2.1,6.2h-4.2L72.6,110.7z M61.1,125.5h7.2l1.2-4.1h6.1l1.2,4.1h7.6l-6.7-18.8h-10L61.1,125.5z"/>
<path d="M100.6,111.8c-1.6-0.6-3.5-0.9-5.6-0.9c-1.1,0-3.1,0-3.1,1.2c0,2.5,9.9,0.1,9.9,7.4c0,5-5,6.3-9.2,6.3
	c-2.8,0-5.1-0.3-7.8-0.9V120c1.9,0.8,4.3,1.2,6.5,1.2c1.7,0,3.2-0.4,3.2-1.3c0-2.5-9.9-0.2-9.9-7.6c0-5.2,5.4-6.1,9.7-6.1
	c2,0,4.3,0.2,6.2,0.6v5H100.6z"/>
<path d="M119.1,111.8c-1.6-0.6-3.5-0.9-5.6-0.9c-1.1,0-3.1,0-3.1,1.2c0,2.5,9.9,0.1,9.9,7.4c0,5-5,6.3-9.2,6.3
	c-2.8,0-5.1-0.3-7.8-0.9V120c1.9,0.8,4.3,1.2,6.5,1.2c1.7,0,3.2-0.4,3.2-1.3c0-2.5-9.9-0.2-9.9-7.6c0-5.2,5.4-6.1,9.7-6.1
	c2,0,4.3,0.2,6.2,0.6v5H119.1z"/>
<path d="M12.2,130.1h6.6l1.5,6.3l0,0l1.5-6.3h6.6v11.6h-4l-0.1-9.1l0,0l-2.3,9.1h-3.7l-2.2-9.1H16l-0.1,9.1h-3.8v-11.6H12.2z"/>
<path d="M33.9,130.1H44v2.8h-5.7v1.6h5.4v2.8h-5.4v1.6H44v2.8H33.9V130.1z"/>
<path d="M53.8,132.8h1.1c1.6,0,2,1,2,3c0,1.9-0.4,3-2,3h-1.1V132.8z M49.4,141.7h6.3c3.3,0,5.8-1.4,5.8-5.8c0-4.7-2.3-5.8-5.7-5.8
	h-6.5v11.6H49.4z"/>
<path d="M71.4,130.1v11.6h-4.5v-11.6H71.4z"/>
<path d="M86.7,141.4c-0.8,0.2-2.1,0.5-3.2,0.5c-3.9,0-6.9-2-6.9-6.2c0-3.9,3.2-5.8,6.9-5.8c1.2,0,2,0.1,3.2,0.4v3.1
	c-0.7-0.2-1.5-0.4-2.2-0.4c-1.9,0-3.3,1-3.3,2.9c0,2,1.3,3,3.2,3c0.8,0,1.6-0.2,2.4-0.4L86.7,141.4L86.7,141.4z"/>
<path d="M97.8,132.6L97.8,132.6l1.3,3.8h-2.6L97.8,132.6z M90.7,141.7h4.4l0.7-2.5h3.8l0.8,2.5h4.7l-4.1-11.6h-6.1L90.7,141.7z"/>
<path d="M109.6,130.1h4.5v8.2h5.5v3.4h-9.9L109.6,130.1L109.6,130.1z"/>
<path d="M22.1,149.4c-1-0.3-2.2-0.6-3.4-0.6c-0.7,0-1.9,0-1.9,0.8c0,1.5,6.1,0.1,6.1,4.6c0,3.1-3.1,3.9-5.6,3.9
	c-1.7,0-3.1-0.2-4.8-0.5v-3c1.2,0.5,2.7,0.8,4,0.8c1,0,2-0.2,2-0.8c0-1.6-6.1-0.1-6.1-4.7c0-3.2,3.3-3.8,6-3.8
	c1.2,0,2.6,0.1,3.8,0.4L22.1,149.4L22.1,149.4z"/>
<path d="M40.7,157.5c-0.8,0.2-2.1,0.5-3.2,0.5c-3.9,0-6.9-2-6.9-6.2c0-3.9,3.2-5.8,6.9-5.8c1.2,0,2,0.1,3.2,0.4v3.1
	c-0.7-0.2-1.5-0.4-2.2-0.4c-1.9,0-3.3,1-3.3,2.9c0,2,1.3,3,3.2,3c0.8,0,1.6-0.2,2.4-0.4v2.9H40.7z"/>
<path d="M56.3,146.2h4.5v11.6h-4.5v-4.2h-3v4.2h-4.5v-11.6h4.5v4h3V146.2z"/>
<path d="M73.5,152c0-1.1,0.1-3.2,1.8-3.2c1.7,0,1.8,2.1,1.8,3.2c0,1.2-0.1,3.2-1.8,3.2C73.7,155.2,73.5,153.2,73.5,152z M81.8,152
	c0-3.9-2.4-6-6.5-6s-6.4,2.1-6.4,6c0,4,2.4,6,6.4,6S81.8,155.9,81.8,152z"/>
<path d="M93.3,152c0-1.1,0.1-3.2,1.8-3.2c1.7,0,1.8,2.1,1.8,3.2c0,1.2-0.1,3.2-1.8,3.2C93.5,155.2,93.3,153.2,93.3,152z M101.6,152
	c0-3.9-2.4-6-6.5-6s-6.4,2.1-6.4,6c0,4,2.4,6,6.4,6C99.2,158,101.6,155.9,101.6,152z"/>
<path class="st2" d="M109.7,146.2h4.5v8.2h5.5v3.4h-9.9L109.7,146.2L109.7,146.2z"/>
</svg>
